<svg width="20" height="20" viewBox="0 0 20 20" fill="none" xmlns="http://www.w3.org/2000/svg">
<path d="M11.0416 5.62504C11.0416 5.04975 10.5752 4.58337 9.99992 4.58337C9.42463 4.58337 8.95825 5.04975 8.95825 5.62504C8.95825 6.20033 9.42463 6.66671 9.99992 6.66671C10.5752 6.66671 11.0416 6.20033 11.0416 5.62504Z" fill="#037ADE"/>
<path d="M8.54158 8.33337C8.54158 7.87314 8.91468 7.50004 9.37492 7.50004H10.2083C10.6685 7.50004 11.0416 7.87314 11.0416 8.33337V13.3334H11.6666C12.1268 13.3334 12.4999 13.7065 12.4999 14.1667C12.4999 14.6269 12.1268 15 11.6666 15H8.74992C8.28968 15 7.91658 14.6269 7.91658 14.1667C7.91658 13.7065 8.28968 13.3334 8.74992 13.3334H9.37492V9.16671C8.91468 9.16671 8.54158 8.79361 8.54158 8.33337Z" fill="#037ADE"/>
<path fill-rule="evenodd" clip-rule="evenodd" d="M9.99992 0.833374C7.46886 0.833374 5.17605 1.8603 3.51811 3.51822C1.86019 5.17617 0.833252 7.46898 0.833252 10C0.833252 12.5311 1.86018 14.8239 3.5181 16.4818C5.17605 18.1398 7.46886 19.1667 9.99992 19.1667C12.531 19.1667 14.8238 18.1398 16.4817 16.4818C18.1396 14.8239 19.1666 12.5311 19.1666 10C19.1666 7.46898 18.1396 5.17617 16.4817 3.51823C14.8238 1.86031 12.531 0.833374 9.99992 0.833374ZM4.69661 4.69674C6.05478 3.33859 7.92864 2.50004 9.99992 2.50004C12.0712 2.50004 13.9451 3.33859 15.3032 4.69674C16.6614 6.05491 17.4999 7.92877 17.4999 10C17.4999 12.0713 16.6614 13.9452 15.3032 15.3033C13.9451 16.6615 12.0712 17.5 9.99992 17.5C7.92864 17.5 6.05478 16.6615 4.69662 15.3033C3.33847 13.9452 2.49992 12.0713 2.49992 10C2.49992 7.92876 3.33846 6.05491 4.69661 4.69674Z" fill="#037ADE"/>
</svg>
