<svg width="22" height="16" viewBox="0 0 22 16" fill="none" xmlns="http://www.w3.org/2000/svg">
<path fill-rule="evenodd" clip-rule="evenodd" d="M10.9988 2C9.48367 2 7.34723 2.0681 4.58136 2.20596C3.58106 2.25583 2.77186 3.03793 2.68796 4.03597C2.56111 5.54509 2.49878 6.85255 2.49878 7.9619C2.49878 9.08481 2.56264 10.4106 2.69262 11.943C2.77623 12.9286 3.56784 13.7051 4.55495 13.7697C6.90687 13.9235 9.05442 14 10.9988 14C12.9434 14 15.0918 13.9235 17.445 13.7696C18.4325 13.705 19.2242 12.928 19.3074 11.942C19.4357 10.4216 19.4988 9.096 19.4988 7.9619C19.4988 6.84161 19.4372 5.53432 19.3121 4.03691C19.2286 3.03849 18.4192 2.25588 17.4185 2.20601C14.6512 2.06815 12.514 2 10.9988 2ZM4.4818 0.20844C7.25913 0.0700042 9.43419 0 10.9988 0C12.5635 0 14.7393 0.0700547 17.518 0.208489C19.5194 0.308221 21.1382 1.87341 21.3051 3.87029C21.4335 5.40688 21.4988 6.77179 21.4988 7.9619C21.4988 9.1666 21.4319 10.5504 21.3003 12.1102C21.1339 14.0823 19.5504 15.6362 17.5755 15.7653C15.1873 15.9215 12.9947 16 10.9988 16C9.00313 16 6.8113 15.9215 4.42442 15.7654C2.45021 15.6363 0.866992 14.0833 0.699778 12.112C0.56653 10.5412 0.498779 9.15659 0.498779 7.9619C0.498779 6.78155 0.564917 5.41591 0.694994 3.86844C0.862787 1.87237 2.48119 0.308174 4.4818 0.20844Z" fill="#037ADE"/>
<path fill-rule="evenodd" clip-rule="evenodd" d="M8.49988 5.80458C8.49988 4.68897 9.76631 3.97412 10.7255 4.61906L14.0241 6.83707C14.8541 7.39502 14.8706 8.64905 14.015 9.21453L10.7163 11.3947C9.78957 12.0073 8.49988 11.3535 8.49988 10.203V5.80458ZM10.4999 6.87742L12.1971 8.01865L10.4999 9.14038V6.87742Z" fill="#037ADE"/>
</svg>
