<svg width="16" height="20" viewBox="0 0 16 20" fill="none" xmlns="http://www.w3.org/2000/svg">
<path fill-rule="evenodd" clip-rule="evenodd" d="M4.66658 1.66671C4.66658 1.20647 5.03968 0.833374 5.49992 0.833374H10.4999C10.9602 0.833374 11.3333 1.20647 11.3333 1.66671C11.3333 2.12694 10.9602 2.50004 10.4999 2.50004H8.83325V3.33337C8.83325 3.34787 8.83288 3.36228 8.83215 3.3766C12.8132 3.7925 15.9166 7.15886 15.9166 11.25C15.9166 15.6223 12.3722 19.1667 7.99992 19.1667C3.62766 19.1667 0.083252 15.6223 0.083252 11.25C0.083252 7.15886 3.1866 3.7925 7.16769 3.3766C7.16696 3.36228 7.16658 3.34787 7.16658 3.33337V2.50004H5.49992C5.03968 2.50004 4.66658 2.12694 4.66658 1.66671ZM7.99992 5.00004C4.54814 5.00004 1.74992 7.79826 1.74992 11.25C1.74992 14.7018 4.54814 17.5 7.99992 17.5C11.4517 17.5 14.2499 14.7018 14.2499 11.25C14.2499 7.79826 11.4517 5.00004 7.99992 5.00004ZM7.99992 7.08337C8.46016 7.08337 8.83325 7.45647 8.83325 7.91671V10.8334H11.3333C11.7935 10.8334 12.1666 11.2065 12.1666 11.6667C12.1666 12.1269 11.7935 12.5 11.3333 12.5H7.99992C7.53968 12.5 7.16658 12.1269 7.16658 11.6667C7.16658 11.5948 7.1757 11.525 7.19284 11.4584C7.1757 11.3918 7.16658 11.322 7.16658 11.25V7.91671C7.16658 7.45647 7.53968 7.08337 7.99992 7.08337Z" fill="#037ADE"/>
</svg>
